<svg width="49" height="49" viewBox="0 0 49 49" fill="none" xmlns="http://www.w3.org/2000/svg">
<path d="M7.53516 2.25781V45.9649H40.6923V2.25781H30.1423H7.53516Z" fill="#DA2C2C"/>
<path opacity="0.25" d="M40.6923 45.2148H7.53516V45.9684H40.6923V45.2148Z" fill="black"/>
<path opacity="0.5" d="M40.6923 2.25781H7.53516V3.01138H40.6923V2.25781Z" fill="white"/>
<path opacity="0.8" d="M19.8195 13.5469C19.546 13.5567 19.2528 13.6298 18.9311 13.7677C16.0577 14.9952 18.1775 17.8151 21.8368 20.3938C21.8587 19.8995 21.8723 19.4157 21.867 18.9522C18.7419 16.8136 17.5242 14.69 19.0275 14.1889C20.6394 13.522 21.8293 15.4979 21.867 18.9522C22.0629 19.0856 22.2596 19.2167 22.4653 19.3516C22.3892 16.2077 21.6997 13.742 20.0908 13.5604C20.0049 13.5506 19.9107 13.5454 19.8195 13.5484M22.4653 19.3516L22.0908 18.7578L21.6153 19.1678L21.5158 19.7917L22.1428 20.9741L22.4578 20.8226C24.5655 22.2273 27.0832 23.5211 29.4456 24.4096L30.1472 24.818L31.1171 24.8414C32.0108 24.3116 31.478 24.1165 34.7259 23.7148L31.0666 23.9929C28.2437 22.9002 25.0832 21.0637 22.4631 19.3516M29.5037 24.3945C29.9272 24.4284 32.9098 23.907 34.224 23.7804C34.7267 23.7148 36.7183 23.5716 36.8193 25.0388C37.163 24.2393 36.646 23.482 35.5307 23.2446C33.8073 22.8587 30.4871 24.0758 29.5037 24.3945ZM31.4072 24.0238C30.8948 24.2076 30.0297 24.1888 29.4765 24.4134C30.261 24.815 34.2775 25.8806 35.903 25.5754C36.163 25.5347 36.8743 25.3372 36.9015 24.7645C35.5993 25.6696 32.0048 25.0336 31.4072 24.0238ZM32.478 24.0411C32.0568 23.9062 29.8827 24.5754 29.4486 24.4103C26.7757 25.3011 23.8481 26.5829 21.4676 27.9506L20.7781 28.087L20.2453 29.038L19.5302 29.9687L20.3365 30.7712L20.9672 29.7358C23.7547 28.0644 29.264 25.3425 32.4795 24.0388M20.9672 29.7358C20.6266 29.9401 20.3011 30.142 19.9928 30.3379C19.6357 31.3515 18.6063 33.5798 17.8994 33.5112C17.8994 33.5112 17.7698 33.619 17.5633 33.7908C18.6492 34.4148 20.0765 32.4645 20.968 29.7358M17.8994 33.5112C16.0245 32.405 19.1044 30.7825 19.9928 30.3379C20.1933 29.766 20.3824 29.1458 20.561 28.4842C17.7615 30.2264 16.0095 32.0327 16.9469 33.2264C17.173 33.515 17.3531 33.723 17.5618 33.79M20.5603 28.4849C20.8504 28.3048 21.1556 28.1277 21.4676 27.9484C22.0192 25.7238 22.3847 23.1655 22.4608 20.8211C22.2483 20.6794 22.0411 20.5362 21.8383 20.3931C21.72 23.0321 21.2295 26.0124 20.5618 28.4849" fill="white"/>
<path d="M12.8102 3.01172H12.0566V45.2117H12.8102V3.01172Z" fill="white" fill-opacity="0.252"/>
<path d="M13.5641 3.01172H12.8105V45.2117H13.5641V3.01172Z" fill="black" fill-opacity="0.083"/>
<path d="M7.53516 2.25781V45.9649H40.6923V2.25781H30.1423H7.53516Z" fill="url(#paint0_linear_2837_69)"/>
<path opacity="0.85" d="M7.53516 33.1557L40.6923 14.3164V24.1128L7.53516 42.9521V33.1557Z" fill="url(#paint1_linear_2837_69)"/>
<g clip-path="url(#clip0_2837_69)">
<rect x="7.21484" y="39.8867" width="0.616105" height="2.83335" transform="rotate(-29.4936 7.21484 39.8867)" fill="url(#paint2_linear_2837_69)"/>
<rect x="9.35352" y="39.7539" width="0.616105" height="1.89237" transform="rotate(-29.4936 9.35352 39.7539)" fill="url(#paint3_linear_2837_69)"/>
<rect x="11.0264" y="38.8008" width="0.616105" height="1.89237" transform="rotate(-29.4936 11.0264 38.8008)" fill="url(#paint4_linear_2837_69)"/>
<rect x="12.6992" y="37.8516" width="0.616105" height="1.89237" transform="rotate(-29.4936 12.6992 37.8516)" fill="url(#paint5_linear_2837_69)"/>
<rect x="13.9082" y="36.082" width="0.616105" height="2.83335" transform="rotate(-29.4936 13.9082 36.082)" fill="url(#paint6_linear_2837_69)"/>
<rect x="16.0459" y="35.9492" width="0.616105" height="1.89237" transform="rotate(-29.4936 16.0459 35.9492)" fill="url(#paint7_linear_2837_69)"/>
<rect x="17.7197" y="35" width="0.616105" height="1.89237" transform="rotate(-29.4936 17.7197 35)" fill="url(#paint8_linear_2837_69)"/>
<rect x="19.3926" y="34.0469" width="0.616105" height="1.89237" transform="rotate(-29.4936 19.3926 34.0469)" fill="url(#paint9_linear_2837_69)"/>
<rect x="20.6016" y="32.2773" width="0.616105" height="2.83335" transform="rotate(-29.4936 20.6016 32.2773)" fill="url(#paint10_linear_2837_69)"/>
<rect x="22.7393" y="32.1445" width="0.616105" height="1.89237" transform="rotate(-29.4936 22.7393 32.1445)" fill="url(#paint11_linear_2837_69)"/>
<rect x="24.4121" y="31.1953" width="0.616105" height="1.89237" transform="rotate(-29.4936 24.4121 31.1953)" fill="url(#paint12_linear_2837_69)"/>
<rect x="26.085" y="30.2422" width="0.616105" height="1.89237" transform="rotate(-29.4936 26.085 30.2422)" fill="url(#paint13_linear_2837_69)"/>
<rect x="27.2949" y="28.4727" width="0.616105" height="2.83335" transform="rotate(-29.4936 27.2949 28.4727)" fill="url(#paint14_linear_2837_69)"/>
<rect x="29.4326" y="28.3398" width="0.616105" height="1.89237" transform="rotate(-29.4936 29.4326 28.3398)" fill="url(#paint15_linear_2837_69)"/>
<rect x="31.1055" y="27.3906" width="0.616105" height="1.89237" transform="rotate(-29.4936 31.1055 27.3906)" fill="url(#paint16_linear_2837_69)"/>
<rect x="32.7783" y="26.4414" width="0.616105" height="1.89237" transform="rotate(-29.4936 32.7783 26.4414)" fill="url(#paint17_linear_2837_69)"/>
<rect x="33.9883" y="24.6719" width="0.616105" height="2.83335" transform="rotate(-29.4936 33.9883 24.6719)" fill="url(#paint18_linear_2837_69)"/>
<rect x="36.126" y="24.5391" width="0.616105" height="1.89237" transform="rotate(-29.4936 36.126 24.5391)" fill="url(#paint19_linear_2837_69)"/>
<rect x="37.7988" y="23.5859" width="0.616105" height="1.89237" transform="rotate(-29.4936 37.7988 23.5859)" fill="url(#paint20_linear_2837_69)"/>
<rect x="39.4717" y="22.6367" width="0.616105" height="1.89237" transform="rotate(-29.4936 39.4717 22.6367)" fill="url(#paint21_linear_2837_69)"/>
</g>
<g clip-path="url(#clip1_2837_69)">
<rect x="7.28906" y="33.2969" width="0.616105" height="1.89237" transform="rotate(-29.4936 7.28906 33.2969)" fill="url(#paint22_linear_2837_69)"/>
<rect x="8.96191" y="32.3477" width="0.616105" height="1.89237" transform="rotate(-29.4936 8.96191 32.3477)" fill="url(#paint23_linear_2837_69)"/>
<rect x="10.6348" y="31.3945" width="0.616105" height="1.89237" transform="rotate(-29.4936 10.6348 31.3945)" fill="url(#paint24_linear_2837_69)"/>
<rect x="12.3096" y="30.4453" width="0.616105" height="2.83335" transform="rotate(-29.4936 12.3096 30.4453)" fill="url(#paint25_linear_2837_69)"/>
<rect x="13.9824" y="29.4922" width="0.616105" height="1.89237" transform="rotate(-29.4936 13.9824 29.4922)" fill="url(#paint26_linear_2837_69)"/>
<rect x="15.6553" y="28.543" width="0.616105" height="1.89237" transform="rotate(-29.4936 15.6553 28.543)" fill="url(#paint27_linear_2837_69)"/>
<rect x="17.3281" y="27.5898" width="0.616105" height="1.89237" transform="rotate(-29.4936 17.3281 27.5898)" fill="url(#paint28_linear_2837_69)"/>
<rect x="19.002" y="26.6406" width="0.616105" height="2.83335" transform="rotate(-29.4936 19.002 26.6406)" fill="url(#paint29_linear_2837_69)"/>
<rect x="20.6758" y="25.6875" width="0.616105" height="1.89237" transform="rotate(-29.4936 20.6758 25.6875)" fill="url(#paint30_linear_2837_69)"/>
<rect x="22.3486" y="24.7383" width="0.616105" height="1.89237" transform="rotate(-29.4936 22.3486 24.7383)" fill="url(#paint31_linear_2837_69)"/>
<rect x="24.0215" y="23.7891" width="0.616105" height="1.89237" transform="rotate(-29.4936 24.0215 23.7891)" fill="url(#paint32_linear_2837_69)"/>
<rect x="25.6953" y="22.8359" width="0.616105" height="2.83335" transform="rotate(-29.4936 25.6953 22.8359)" fill="url(#paint33_linear_2837_69)"/>
<rect x="27.3682" y="21.8867" width="0.616105" height="1.89237" transform="rotate(-29.4936 27.3682 21.8867)" fill="url(#paint34_linear_2837_69)"/>
<rect x="29.042" y="20.9336" width="0.616105" height="1.89237" transform="rotate(-29.4936 29.042 20.9336)" fill="url(#paint35_linear_2837_69)"/>
<rect x="30.7148" y="19.9844" width="0.616105" height="1.89237" transform="rotate(-29.4936 30.7148 19.9844)" fill="url(#paint36_linear_2837_69)"/>
<rect x="32.3887" y="19.0312" width="0.616105" height="2.83335" transform="rotate(-29.4936 32.3887 19.0312)" fill="url(#paint37_linear_2837_69)"/>
<rect x="34.0615" y="18.082" width="0.616105" height="1.89237" transform="rotate(-29.4936 34.0615 18.082)" fill="url(#paint38_linear_2837_69)"/>
<rect x="35.7344" y="17.1289" width="0.616105" height="1.89237" transform="rotate(-29.4936 35.7344 17.1289)" fill="url(#paint39_linear_2837_69)"/>
<rect x="37.4072" y="16.1797" width="0.616105" height="1.89237" transform="rotate(-29.4936 37.4072 16.1797)" fill="url(#paint40_linear_2837_69)"/>
<rect x="39.082" y="15.2266" width="0.616105" height="2.83335" transform="rotate(-29.4936 39.082 15.2266)" fill="url(#paint41_linear_2837_69)"/>
</g>
<defs>
<linearGradient id="paint0_linear_2837_69" x1="-10.5505" y1="45.2113" x2="-10.5505" y2="3.01139" gradientUnits="userSpaceOnUse">
<stop stop-color="white" stop-opacity="0"/>
<stop offset="1" stop-color="white" stop-opacity="0.15"/>
</linearGradient>
<linearGradient id="paint1_linear_2837_69" x1="19.5923" y1="19.5914" x2="30.1423" y2="39.561" gradientUnits="userSpaceOnUse">
<stop stop-color="#F6CE78"/>
<stop offset="1" stop-color="#CBA149"/>
</linearGradient>
<linearGradient id="paint2_linear_2837_69" x1="7.21484" y1="41.3034" x2="7.83095" y2="41.3034" gradientUnits="userSpaceOnUse">
<stop stop-color="#A05B1D"/>
<stop offset="1" stop-color="#A56A35"/>
</linearGradient>
<linearGradient id="paint3_linear_2837_69" x1="9.35352" y1="40.7001" x2="9.96962" y2="40.7001" gradientUnits="userSpaceOnUse">
<stop stop-color="#A05B1D"/>
<stop offset="1" stop-color="#A56A35"/>
</linearGradient>
<linearGradient id="paint4_linear_2837_69" x1="11.0264" y1="39.747" x2="11.6425" y2="39.747" gradientUnits="userSpaceOnUse">
<stop stop-color="#A05B1D"/>
<stop offset="1" stop-color="#A56A35"/>
</linearGradient>
<linearGradient id="paint5_linear_2837_69" x1="12.6992" y1="38.7977" x2="13.3153" y2="38.7977" gradientUnits="userSpaceOnUse">
<stop stop-color="#A05B1D"/>
<stop offset="1" stop-color="#A56A35"/>
</linearGradient>
<linearGradient id="paint6_linear_2837_69" x1="13.9082" y1="37.4987" x2="14.5243" y2="37.4987" gradientUnits="userSpaceOnUse">
<stop stop-color="#A05B1D"/>
<stop offset="1" stop-color="#A56A35"/>
</linearGradient>
<linearGradient id="paint7_linear_2837_69" x1="16.0459" y1="36.8954" x2="16.662" y2="36.8954" gradientUnits="userSpaceOnUse">
<stop stop-color="#A05B1D"/>
<stop offset="1" stop-color="#A56A35"/>
</linearGradient>
<linearGradient id="paint8_linear_2837_69" x1="17.7197" y1="35.9462" x2="18.3358" y2="35.9462" gradientUnits="userSpaceOnUse">
<stop stop-color="#A05B1D"/>
<stop offset="1" stop-color="#A56A35"/>
</linearGradient>
<linearGradient id="paint9_linear_2837_69" x1="19.3926" y1="34.9931" x2="20.0087" y2="34.9931" gradientUnits="userSpaceOnUse">
<stop stop-color="#A05B1D"/>
<stop offset="1" stop-color="#A56A35"/>
</linearGradient>
<linearGradient id="paint10_linear_2837_69" x1="20.6016" y1="33.694" x2="21.2177" y2="33.694" gradientUnits="userSpaceOnUse">
<stop stop-color="#A05B1D"/>
<stop offset="1" stop-color="#A56A35"/>
</linearGradient>
<linearGradient id="paint11_linear_2837_69" x1="22.7393" y1="33.0907" x2="23.3554" y2="33.0907" gradientUnits="userSpaceOnUse">
<stop stop-color="#A05B1D"/>
<stop offset="1" stop-color="#A56A35"/>
</linearGradient>
<linearGradient id="paint12_linear_2837_69" x1="24.4121" y1="32.1415" x2="25.0282" y2="32.1415" gradientUnits="userSpaceOnUse">
<stop stop-color="#A05B1D"/>
<stop offset="1" stop-color="#A56A35"/>
</linearGradient>
<linearGradient id="paint13_linear_2837_69" x1="26.085" y1="31.1884" x2="26.7011" y2="31.1884" gradientUnits="userSpaceOnUse">
<stop stop-color="#A05B1D"/>
<stop offset="1" stop-color="#A56A35"/>
</linearGradient>
<linearGradient id="paint14_linear_2837_69" x1="27.2949" y1="29.8893" x2="27.911" y2="29.8893" gradientUnits="userSpaceOnUse">
<stop stop-color="#A05B1D"/>
<stop offset="1" stop-color="#A56A35"/>
</linearGradient>
<linearGradient id="paint15_linear_2837_69" x1="29.4326" y1="29.286" x2="30.0487" y2="29.286" gradientUnits="userSpaceOnUse">
<stop stop-color="#A05B1D"/>
<stop offset="1" stop-color="#A56A35"/>
</linearGradient>
<linearGradient id="paint16_linear_2837_69" x1="31.1055" y1="28.3368" x2="31.7216" y2="28.3368" gradientUnits="userSpaceOnUse">
<stop stop-color="#A05B1D"/>
<stop offset="1" stop-color="#A56A35"/>
</linearGradient>
<linearGradient id="paint17_linear_2837_69" x1="32.7783" y1="27.3876" x2="33.3944" y2="27.3876" gradientUnits="userSpaceOnUse">
<stop stop-color="#A05B1D"/>
<stop offset="1" stop-color="#A56A35"/>
</linearGradient>
<linearGradient id="paint18_linear_2837_69" x1="33.9883" y1="26.0885" x2="34.6044" y2="26.0885" gradientUnits="userSpaceOnUse">
<stop stop-color="#A05B1D"/>
<stop offset="1" stop-color="#A56A35"/>
</linearGradient>
<linearGradient id="paint19_linear_2837_69" x1="36.126" y1="25.4852" x2="36.7421" y2="25.4852" gradientUnits="userSpaceOnUse">
<stop stop-color="#A05B1D"/>
<stop offset="1" stop-color="#A56A35"/>
</linearGradient>
<linearGradient id="paint20_linear_2837_69" x1="37.7988" y1="24.5321" x2="38.4149" y2="24.5321" gradientUnits="userSpaceOnUse">
<stop stop-color="#A05B1D"/>
<stop offset="1" stop-color="#A56A35"/>
</linearGradient>
<linearGradient id="paint21_linear_2837_69" x1="39.4717" y1="23.5829" x2="40.0878" y2="23.5829" gradientUnits="userSpaceOnUse">
<stop stop-color="#A05B1D"/>
<stop offset="1" stop-color="#A56A35"/>
</linearGradient>
<linearGradient id="paint22_linear_2837_69" x1="7.28906" y1="34.2431" x2="7.90517" y2="34.2431" gradientUnits="userSpaceOnUse">
<stop stop-color="#A05B1D"/>
<stop offset="1" stop-color="#A56A35"/>
</linearGradient>
<linearGradient id="paint23_linear_2837_69" x1="8.96191" y1="33.2938" x2="9.57802" y2="33.2938" gradientUnits="userSpaceOnUse">
<stop stop-color="#A05B1D"/>
<stop offset="1" stop-color="#A56A35"/>
</linearGradient>
<linearGradient id="paint24_linear_2837_69" x1="10.6348" y1="32.3407" x2="11.2509" y2="32.3407" gradientUnits="userSpaceOnUse">
<stop stop-color="#A05B1D"/>
<stop offset="1" stop-color="#A56A35"/>
</linearGradient>
<linearGradient id="paint25_linear_2837_69" x1="12.3096" y1="31.862" x2="12.9257" y2="31.862" gradientUnits="userSpaceOnUse">
<stop stop-color="#A05B1D"/>
<stop offset="1" stop-color="#A56A35"/>
</linearGradient>
<linearGradient id="paint26_linear_2837_69" x1="13.9824" y1="30.4384" x2="14.5985" y2="30.4384" gradientUnits="userSpaceOnUse">
<stop stop-color="#A05B1D"/>
<stop offset="1" stop-color="#A56A35"/>
</linearGradient>
<linearGradient id="paint27_linear_2837_69" x1="15.6553" y1="29.4892" x2="16.2714" y2="29.4892" gradientUnits="userSpaceOnUse">
<stop stop-color="#A05B1D"/>
<stop offset="1" stop-color="#A56A35"/>
</linearGradient>
<linearGradient id="paint28_linear_2837_69" x1="17.3281" y1="28.536" x2="17.9442" y2="28.536" gradientUnits="userSpaceOnUse">
<stop stop-color="#A05B1D"/>
<stop offset="1" stop-color="#A56A35"/>
</linearGradient>
<linearGradient id="paint29_linear_2837_69" x1="19.002" y1="28.0573" x2="19.6181" y2="28.0573" gradientUnits="userSpaceOnUse">
<stop stop-color="#A05B1D"/>
<stop offset="1" stop-color="#A56A35"/>
</linearGradient>
<linearGradient id="paint30_linear_2837_69" x1="20.6758" y1="26.6337" x2="21.2919" y2="26.6337" gradientUnits="userSpaceOnUse">
<stop stop-color="#A05B1D"/>
<stop offset="1" stop-color="#A56A35"/>
</linearGradient>
<linearGradient id="paint31_linear_2837_69" x1="22.3486" y1="25.6845" x2="22.9647" y2="25.6845" gradientUnits="userSpaceOnUse">
<stop stop-color="#A05B1D"/>
<stop offset="1" stop-color="#A56A35"/>
</linearGradient>
<linearGradient id="paint32_linear_2837_69" x1="24.0215" y1="24.7352" x2="24.6376" y2="24.7352" gradientUnits="userSpaceOnUse">
<stop stop-color="#A05B1D"/>
<stop offset="1" stop-color="#A56A35"/>
</linearGradient>
<linearGradient id="paint33_linear_2837_69" x1="25.6953" y1="24.2526" x2="26.3114" y2="24.2526" gradientUnits="userSpaceOnUse">
<stop stop-color="#A05B1D"/>
<stop offset="1" stop-color="#A56A35"/>
</linearGradient>
<linearGradient id="paint34_linear_2837_69" x1="27.3682" y1="22.8329" x2="27.9843" y2="22.8329" gradientUnits="userSpaceOnUse">
<stop stop-color="#A05B1D"/>
<stop offset="1" stop-color="#A56A35"/>
</linearGradient>
<linearGradient id="paint35_linear_2837_69" x1="29.042" y1="21.8798" x2="29.6581" y2="21.8798" gradientUnits="userSpaceOnUse">
<stop stop-color="#A05B1D"/>
<stop offset="1" stop-color="#A56A35"/>
</linearGradient>
<linearGradient id="paint36_linear_2837_69" x1="30.7148" y1="20.9306" x2="31.3309" y2="20.9306" gradientUnits="userSpaceOnUse">
<stop stop-color="#A05B1D"/>
<stop offset="1" stop-color="#A56A35"/>
</linearGradient>
<linearGradient id="paint37_linear_2837_69" x1="32.3887" y1="20.4479" x2="33.0048" y2="20.4479" gradientUnits="userSpaceOnUse">
<stop stop-color="#A05B1D"/>
<stop offset="1" stop-color="#A56A35"/>
</linearGradient>
<linearGradient id="paint38_linear_2837_69" x1="34.0615" y1="19.0282" x2="34.6776" y2="19.0282" gradientUnits="userSpaceOnUse">
<stop stop-color="#A05B1D"/>
<stop offset="1" stop-color="#A56A35"/>
</linearGradient>
<linearGradient id="paint39_linear_2837_69" x1="35.7344" y1="18.0751" x2="36.3505" y2="18.0751" gradientUnits="userSpaceOnUse">
<stop stop-color="#A05B1D"/>
<stop offset="1" stop-color="#A56A35"/>
</linearGradient>
<linearGradient id="paint40_linear_2837_69" x1="37.4072" y1="17.1259" x2="38.0233" y2="17.1259" gradientUnits="userSpaceOnUse">
<stop stop-color="#A05B1D"/>
<stop offset="1" stop-color="#A56A35"/>
</linearGradient>
<linearGradient id="paint41_linear_2837_69" x1="39.082" y1="16.6432" x2="39.6981" y2="16.6432" gradientUnits="userSpaceOnUse">
<stop stop-color="#A05B1D"/>
<stop offset="1" stop-color="#A56A35"/>
</linearGradient>
<clipPath id="clip0_2837_69">
<rect width="39.8384" height="2.8346" fill="white" transform="translate(6.05859 40.543) rotate(-29.6102)"/>
</clipPath>
<clipPath id="clip1_2837_69">
<rect width="39.8384" height="2.8346" fill="white" transform="translate(6.13379 33.9531) rotate(-29.6102)"/>
</clipPath>
</defs>
</svg>
